HIERARCHY
ROOT RootJoint
{
    OFFSET   0.000000   0.000000   0.000000
    CHANNELS 6 Xposition Yposition Zposition Xrotation Yrotation Zrotation
    JOINT pelvis_lowerback
    {
        OFFSET   0.000000   0.093605   0.000000
        CHANNELS 3 Xrotation Yrotation Zrotation
        JOINT lowerback_torso
        {
            OFFSET   0.000000   0.100000   0.000000
            CHANNELS 3 Xrotation Yrotation Zrotation
            JOINT torso_head
            {
                OFFSET   0.000000   0.282350   0.000000
                CHANNELS 3 Xrotation Yrotation Zrotation
                End Site
                {
                    OFFSET   0.000000   0.192650   0.000000
                }
            }
            JOINT rTorso_Clavicle
            {
                OFFSET  -0.001000   0.157500   0.000000
                CHANNELS 3 Xrotation Yrotation Zrotation
                JOINT rShoulder
                {
                    OFFSET  -0.117647   0.000000   0.000000
                    CHANNELS 3 Xrotation Yrotation Zrotation
                    JOINT rElbow
                    {
                        OFFSET  -0.245000   0.000000   0.000000
                        CHANNELS 3 Xrotation Yrotation Zrotation
                        JOINT rWrist
                        {
                            OFFSET  -0.240000   0.000000   0.000000
                            CHANNELS 3 Xrotation Yrotation Zrotation
                            End Site
                            {
                                OFFSET  -0.116353  -0.002500   0.000000
                            }
                        }
                    }
                }
            }
            JOINT lTorso_Clavicle
            {
                OFFSET   0.001000   0.157500   0.000000
                CHANNELS 3 Xrotation Yrotation Zrotation
                JOINT lShoulder
                {
                    OFFSET   0.117647   0.000000   0.000000
                    CHANNELS 3 Xrotation Yrotation Zrotation
                    JOINT lElbow
                    {
                        OFFSET   0.245000   0.000000   0.000000
                        CHANNELS 3 Xrotation Yrotation Zrotation
                        JOINT lWrist
                        {
                            OFFSET   0.240000   0.000000   0.000000
                            CHANNELS 3 Xrotation Yrotation Zrotation
                            End Site
                            {
                                OFFSET   0.116353  -0.002500   0.000000
                            }
                        }
                    }
                }
            }
        }
    }
    JOINT rHip
    {
        OFFSET  -0.100000  -0.051395   0.000000
        CHANNELS 3 Xrotation Yrotation Zrotation
        JOINT rKnee
        {
            OFFSET   0.000000  -0.410000   0.000000
            CHANNELS 3 Xrotation Yrotation Zrotation
            JOINT rAnkle
            {
                OFFSET   0.000000  -0.390000   0.000000
                CHANNELS 3 Xrotation Yrotation Zrotation
                JOINT rToeJoint
                {
                    OFFSET   0.000000  -0.050000   0.130000
                    CHANNELS 3 Xrotation Yrotation Zrotation
                    End Site
                    {
                        OFFSET  -0.010000   0.002000   0.060000
                    }
                }
            }
        }
    }
    JOINT lHip
    {
        OFFSET   0.100000  -0.051395   0.000000
        CHANNELS 3 Xrotation Yrotation Zrotation
        JOINT lKnee
        {
            OFFSET   0.000000  -0.410000   0.000000
            CHANNELS 3 Xrotation Yrotation Zrotation
            JOINT lAnkle
            {
                OFFSET   0.000000  -0.390000   0.000000
                CHANNELS 3 Xrotation Yrotation Zrotation
                JOINT lToeJoint
                {
                    OFFSET   0.000000  -0.050000   0.130000
                    CHANNELS 3 Xrotation Yrotation Zrotation
                    End Site
                    {
                        OFFSET   0.010000   0.002000   0.060000
                    }
                }
            }
        }
    }
}
MOTION
Frames: 7
Frame Time:   0.008333
 -2.170868   1.024285   4.873861  -9.090806 -16.917976   0.919626  15.843646   3.488571  -1.754282   2.672943   0.144929  -0.396212   5.917776   2.544191  -0.506471   2.872849  -4.738162  -1.671781  -1.775162   5.670972  50.347095  -0.001399  28.970119   0.002073  -1.801858   1.253844   1.779715  -0.116862   6.964788  -4.614156   0.666391   1.697679 -50.151161   0.000995 -29.570721   0.003180   0.256958  -1.980664   2.512664  11.749889  -0.081703  -2.364342   4.295655  -0.000321   0.001149  56.684035  -3.896172  -0.293951 -45.000000   0.000000   0.000000 -28.663396   4.033523   4.927226  52.691013  -0.000702   0.014300   6.228354   8.018778   1.146754 -12.911597   0.001832   0.006783
 -2.169415   1.024346   4.876746  -8.970046 -17.369025   0.870641  15.693811   3.485846  -1.879331   2.686919   0.162466  -0.392362   6.039575   2.675284  -0.543013   2.930623  -4.954319  -1.699208  -1.653203   5.585520  50.322490  -0.001592  29.123531   0.002357  -1.793697   1.274476   1.850446  -0.097675   6.747817  -4.466534   0.510991   1.715755 -50.156025   0.000891 -29.637232   0.002836   0.186633  -1.966632   2.466923  11.738652  -0.012461  -2.505576   4.239617  -0.000308   0.001112  56.753019  -3.819042  -0.255956 -45.000000   0.000000   0.000000 -28.083736   4.170981   4.767289  51.748851  -0.000985   0.015434   7.806815   8.285276   1.205837 -13.475910   0.002472   0.006949
 -2.167985   1.024335   4.879730  -8.842323 -17.815031   0.793823  15.522650   3.475949  -1.981197   2.691570   0.173005  -0.377979   6.156438   2.801291  -0.578378   2.993186  -5.174684  -1.729192  -1.529580   5.497148  50.296277  -0.001735  29.265584   0.002573  -1.786225   1.304754   1.919812  -0.078460   6.546448  -4.309399   0.365798   1.733915 -50.150102   0.000789 -29.698411   0.002535   0.118024  -1.935516   2.421422  11.718320   0.053216  -2.616099   4.196371  -0.000286   0.001041  56.814201  -3.734851  -0.217815 -45.000000   0.000000   0.000000 -27.483958   4.300161   4.620760  50.832333  -0.001347   0.016215   9.289706   8.536971   1.253540 -13.926625   0.002696   0.006832
 -2.166558   1.024265   4.882773  -8.704897 -18.255093   0.695985  15.342917   3.458420  -2.065876   2.683038   0.174384  -0.354772   6.263083   2.918960  -0.611132   3.056483  -5.389943  -1.759302  -1.408488   5.409010  50.268969  -0.001823  29.395602   0.002711  -1.779047   1.325323   1.980362  -0.061195   6.359465  -4.151401   0.228695   1.751569 -50.135937   0.000701 -29.755924   0.002279   0.052370  -1.904964   2.392738  11.689137   0.116032  -2.701392   4.156774  -0.000266   0.000971  56.867538  -3.649121  -0.180268 -45.000000   0.000000   0.000000 -26.889242   4.421582   4.481189  49.975810  -0.001742   0.016582  10.674572   8.773133   1.292307 -14.335817   0.002738   0.006681
 -2.165121   1.024145   4.885854  -8.557968 -18.693362   0.582242  15.161043   3.435701  -2.138140   2.664374   0.168870  -0.325923   6.360375   3.028636  -0.641383   3.118224  -5.596334  -1.788154  -1.292263   5.323412  50.241988  -0.001865  29.515273   0.002779  -1.772090   1.336779   2.033045  -0.046813   6.184099  -3.996228   0.098356   1.767527 -50.116736   0.000629 -29.810447   0.002064  -0.010314  -1.879475   2.378568  11.651425   0.176104  -2.767425   4.117132  -0.000250   0.000917  56.914156  -3.563842  -0.143702 -45.000000   0.000000   0.000000 -26.307672   4.536852   4.344832  49.182385  -0.002121   0.016632  11.967994   8.994456   1.323388 -14.709640   0.002665   0.006517
 -2.163666   1.023984   4.888960  -8.402186 -19.133309   0.455596  14.981161   3.409833  -2.200944   2.638619   0.158604  -0.293756   6.449544   3.130867  -0.669421   3.177150  -5.791961  -1.815063  -1.182128   5.241729  50.216292  -0.001868  29.626041   0.002790  -1.765387   1.342657   2.080239  -0.035433   6.018730  -3.846039  -0.025822   1.781272 -50.094789   0.000574 -29.862363   0.001886  -0.070120  -1.860357   2.374451  11.605412   0.233430  -2.817968   4.075681  -0.000239   0.000883  56.955031  -3.480197  -0.108333 -45.000000   0.000000   0.000000 -25.743453   4.646456   4.210240  48.448920  -0.002452   0.016458  13.176048   9.201655   1.347915 -15.051491   0.002522   0.006349
 -2.162186   1.023786   4.892081  -8.238454 -19.577299   0.317900  14.806142   3.382280  -2.256307   2.608284   0.145223  -0.259833   6.531628   3.226170  -0.695485   3.232637  -5.976002  -1.839676  -1.078616   5.164670  50.192427  -0.001844  29.728991   0.002756  -1.758972   1.345734   2.123870  -0.026765   5.862429  -3.702133  -0.144073   1.792742 -50.071629   0.000534 -29.911847   0.001737  -0.127174  -1.847561   2.376829  11.551589   0.288043  -2.855503   4.031511  -0.000233   0.000870  56.990778  -3.398824  -0.074239 -45.000000   0.000000   0.000000 -25.199186   4.750503   4.077066  47.771058  -0.002718   0.016128  14.304348   9.395465   1.366899 -15.364285   0.002339   0.006178
